<?xml version="1.0" encoding="utf-8"?>
<!-- Generator: Adobe Illustrator 19.1.1, SVG Export Plug-In . SVG Version: 6.00 Build 0)  -->
<svg version="1.1" id="Layer_1" xmlns:sketch="http://www.bohemiancoding.com/sketch/ns"
	 xmlns="http://www.w3.org/2000/svg" xmlns:xlink="http://www.w3.org/1999/xlink" x="0px" y="0px" viewBox="-296 388 18 18"
	 style="enable-background:new -296 388 18 18;" xml:space="preserve">
<style type="text/css">
	.st0{fill:#AA0000;}
</style>
<title></title>
<desc></desc>
<g id="Page-1">
	<g id="Core" transform="translate(-3.000000, -87.000000)">
		<g id="check-box-outline-blank" transform="translate(3.000000, 87.000000)">
			<path id="Shape" class="st0" d="M-280,390v14h-14v-14H-280L-280,390z M-280,388h-14c-1.1,0-2,0.9-2,2v14c0,1.1,0.9,2,2,2h14
				c1.1,0,2-0.9,2-2v-14C-278,388.9-278.9,388-280,388L-280,388L-280,388z"/>
		</g>
	</g>
</g>
<g>
	<title></title>
	<desc></desc>
	<g id="Page-1_3_">
		<g id="Core_3_" transform="translate(-341.000000, -89.000000)">
			<g id="close_1_" transform="translate(341.000000, 89.000000)">
				<path id="Shape_3_" class="st0" d="M-280.7,391.9l-1.3-1.3l-5.1,5.1l-5.1-5.1l-1.3,1.3l5.1,5.1l-5.1,5.1l1.3,1.3l5.1-5.1
					l5.1,5.1l1.3-1.3l-5.1-5.1L-280.7,391.9z"/>
			</g>
		</g>
	</g>
</g>
</svg>
