<?xml version="1.0" encoding="UTF-8" standalone="no"?>
<!-- Generator: Adobe Illustrator 19.1.1, SVG Export Plug-In . SVG Version: 6.00 Build 0)  -->

<svg
   xmlns:dc="http://purl.org/dc/elements/1.1/"
   xmlns:cc="http://creativecommons.org/ns#"
   xmlns:rdf="http://www.w3.org/1999/02/22-rdf-syntax-ns#"
   xmlns:svg="http://www.w3.org/2000/svg"
   xmlns="http://www.w3.org/2000/svg"
   xmlns:sodipodi="http://sodipodi.sourceforge.net/DTD/sodipodi-0.dtd"
   xmlns:inkscape="http://www.inkscape.org/namespaces/inkscape"
   version="1.1"
   id="Layer_1"
   x="0px"
   y="0px"
   viewBox="-296 388 18 18"
   style="enable-background:new -296 388 18 18;"
   xml:space="preserve"
   inkscape:version="0.48.4 r9939"
   width="100%"
   height="100%"
   sodipodi:docname="checkboxcheck.svg"><metadata
   id="metadata3033"><rdf:RDF><cc:Work
       rdf:about=""><dc:format>image/svg+xml</dc:format><dc:type
         rdf:resource="http://purl.org/dc/dcmitype/StillImage" /></cc:Work></rdf:RDF></metadata><defs
   id="defs3031" /><sodipodi:namedview
   pagecolor="#ffffff"
   bordercolor="#666666"
   borderopacity="1"
   objecttolerance="10"
   gridtolerance="10"
   guidetolerance="10"
   inkscape:pageopacity="0"
   inkscape:pageshadow="2"
   inkscape:window-width="1366"
   inkscape:window-height="705"
   id="namedview3029"
   showgrid="false"
   inkscape:zoom="28.777778"
   inkscape:cx="9"
   inkscape:cy="9"
   inkscape:window-x="-8"
   inkscape:window-y="-8"
   inkscape:window-maximized="1"
   inkscape:current-layer="Layer_1" />
<title
   id="title3011" />
<desc
   id="desc3013" />
<g
   id="Page-1">
	<g
   id="Core"
   transform="translate(-3.000000, -87.000000)">
		<g
   id="check-box-outline-blank"
   transform="translate(3.000000, 87.000000)">
			<path
   id="Shape"
   d="M-280,390v14h-14v-14H-280L-280,390z M-280,388h-14c-1.1,0-2,0.9-2,2v14c0,1.1,0.9,2,2,2h14c1.1,0,2-0.9,2-2     v-14C-278,388.9-278.9,388-280,388L-280,388L-280,388z"
   style="fill:#7ee240;fill-opacity:1" />
		</g>
	</g>
</g>
<g
   id="g3019">
	<title
   id="title3021" />
	<desc
   id="desc3023" />
	<g
   id="Page-1_2_">
		<g
   id="Core_2_"
   transform="translate(-423.000000, -47.000000)">
			<g
   id="check_1_"
   transform="translate(423.000000, 47.500000)">
				<path
   id="Shape_2_"
   d="M-289.4,399.4l-3.1-3.1l-1,1l4.2,4.2l9-9l-1-1L-289.4,399.4z"
   style="fill:#7ee240;fill-opacity:1" />
			</g>
		</g>
	</g>
</g>
</svg>